<?xml version="1.0" encoding="utf-8"?>
<!-- Generator: Adobe Illustrator 27.5.0, SVG Export Plug-In . SVG Version: 6.00 Build 0)  -->
<svg version="1.1" id="Capa_1" xmlns="http://www.w3.org/2000/svg" xmlns:xlink="http://www.w3.org/1999/xlink" x="0px" y="0px"
	 viewBox="0 0 2122 2122" 
<g>
	<path style="fill:#FFDE00;" d="M1947.306,1071.985c-10.293-21.557-37.495-29.568-58.387-36.403
		c-61.966-20.273-128.531-27.288-192.62-38.029c-15.201-2.547-30.411-5.052-45.634-7.474c48.286-21.445,95.27-45.745,140.493-71.24
		c43.948-24.776,86.834-55.328,113.236-99.345c10.52-17.541,16.322-36.253-0.131-52.251c-17.128-16.652-45.42-14.739-67.386-13.908
		c-65.151,2.464-130.021,18.957-193.86,31.099c-45.305,8.615-90.566,17.587-135.411,28.319
		c58.208-57.053,110.258-121.304,157.315-186.385c29.561-40.883,55.742-86.57,61.318-137.593
		c2.223-20.333-0.332-39.757-21.968-47.407c-22.521-7.965-47.421,5.605-67.027,15.544c-58.152,29.481-110.18,71.589-163.093,109.313
		c-13.859,9.88-27.691,19.802-41.456,29.816c18.9-49.157,34.884-99.398,48.79-149.244c13.556-48.596,22.278-100.525,9.822-150.318
		c-4.964-19.842-14.093-37.177-37.039-36.854c-23.886,0.336-42.538,21.695-57.483,37.815
		c-44.327,47.811-78.533,105.342-115.09,159.069c-25.654,37.703-51.029,75.622-74.916,114.461
		c0.888-81.786-7.755-164.325-20.546-243.9c-8.006-49.811-21.798-100.63-53.934-140.652c-12.806-15.948-28.347-27.877-49.056-17.988
		c-21.557,10.293-29.568,37.495-36.403,58.387c-20.273,61.967-27.288,128.531-38.028,192.62
		c-4.643,27.707-9.143,55.446-13.213,83.244c-29.522-59.934-64.193-117.572-100.567-172.267
		c-27.937-42.009-61.557-82.536-107.393-105.633c-18.266-9.204-37.354-13.616-52.099,3.968
		c-15.349,18.305-11.363,46.38-8.921,68.225c7.242,64.795,28.456,128.277,45.253,191.052
		c11.375,42.511,23.071,84.958,36.276,126.931c-62.677-56.029-132.751-104.876-203.299-148.375
		c-42.944-26.478-90.43-49.233-141.725-51.047c-20.441-0.722-39.624,3.251-45.666,25.391c-6.289,23.045,9.073,46.881,20.426,65.704
		c33.673,55.83,79.489,104.625,120.997,154.624c14.723,17.735,29.522,35.414,44.513,52.926
		c-56.682-18.129-114.708-32.272-172.039-43.807c-49.459-9.951-101.889-14.834-150.633,1.245
		c-19.424,6.407-36.041,16.785-34.034,39.645c2.089,23.797,24.761,40.83,41.934,54.55c50.938,40.696,110.827,70.584,167.093,103.096
		c36.785,21.256,73.734,42.267,111.352,62c-81.471,5.149-162.986,19.811-241.254,38.375c-49.089,11.643-98.757,29.131-136.31,64.119
		c-14.965,13.943-25.72,30.318-14.337,50.245c11.849,20.742,39.565,26.735,60.903,32.017
		c63.288,15.667,130.188,17.773,194.894,23.778c23.409,2.173,46.834,4.252,70.276,6.059
		c-54.597,27.839-107.216,59.778-157.367,93.129c-42.01,27.938-82.536,61.557-105.633,107.394
		c-9.204,18.266-13.616,37.353,3.968,52.099c18.304,15.349,46.38,11.362,68.225,8.921c64.795-7.243,128.277-28.456,191.052-45.253
		c41.557-11.12,83.054-22.54,124.105-35.38c-53.205,60.706-99.882,127.951-141.621,195.645
		c-26.478,42.944-49.233,90.43-51.047,141.725c-0.722,20.441,3.251,39.625,25.391,45.666c23.046,6.289,46.881-9.073,65.704-20.426
		c55.829-33.673,104.625-79.488,154.624-120.997c16.912-14.039,33.769-28.155,50.483-42.432
		c-18.857,58.162-33.442,117.81-45.293,176.717c-9.951,49.459-14.834,101.889,1.245,150.633
		c6.407,19.424,16.785,36.041,39.646,34.033c23.797-2.089,40.83-24.76,54.55-41.934c40.696-50.938,70.584-110.827,103.095-167.093
		c22.662-39.219,45.033-78.632,65.883-118.836c5.107,81.713,19.801,163.48,38.419,241.98c11.643,49.089,29.131,98.757,64.12,136.31
		c13.943,14.965,30.318,25.72,50.245,14.337c20.743-11.849,26.735-39.566,32.017-60.903
		c15.667-63.288,17.773-130.188,23.778-194.893c0.235-2.541,0.462-5.084,0.695-7.626c15.288,31.172,31.537,61.731,48.326,91.512
		c24.776,43.948,55.328,86.835,99.345,113.237c17.541,10.52,36.253,16.322,52.25-0.132c16.652-17.127,14.739-45.42,13.908-67.385
		c-2.464-65.152-18.957-130.021-31.098-193.86c-8.211-43.175-16.747-86.31-26.816-129.084
		c55.392,55.523,117.248,105.364,179.835,150.618c40.883,29.56,86.57,55.741,137.593,61.318
		c20.333,2.222,39.757-0.332,47.407-21.968c7.965-22.521-5.604-47.421-15.544-67.027c-29.482-58.152-71.59-110.18-109.313-163.093
		c-10.333-14.494-20.716-28.954-31.198-43.342c50.013,19.355,101.184,35.654,151.941,49.813
		c48.595,13.556,100.524,22.277,150.317,9.822c19.842-4.963,37.176-14.093,36.854-37.039c-0.336-23.886-21.695-42.538-37.814-57.484
		c-47.811-44.327-105.343-78.533-159.07-115.089c-36.974-25.158-74.157-50.047-112.21-73.53c79.338,0.3,159.277-8.228,236.43-20.629
		c49.811-8.006,100.629-21.799,140.651-53.934C1945.266,1108.235,1957.195,1092.694,1947.306,1071.985z"/>
	<path style="fill:#FFF26B;" d="M1313.788,491.033c-29.122,51.642-56.647,104.215-82.008,157.81
		c-16.536,34.945-32.042,70.375-46.589,106.195c-8.49,34.386-19.423,68.129-31.841,101.354
		c14.88-22.459,31.906-43.427,50.173-63.367c25.421-44.932,50.208-90.222,74.322-135.868
		c29.338-55.534,57.947-111.476,85.597-167.871c27.63-56.352,52.368-114.39,82.447-169.448l0.664,0.306
		c-20.766,60.494-49.502,118.484-76.916,176.227c-26.936,56.732-54.881,112.958-84.02,168.592
		c-17.118,32.683-34.613,65.168-52.389,97.498c13.088-12.749,26.527-25.145,40.174-37.2c8.656-8.175,17.41-16.103,26.196-23.9
		c2.905-4.812,5.895-9.573,8.758-14.411c30.671-51.821,59.131-104.999,84.914-159.421c12.627-26.651,24.627-53.6,36.021-80.801
		c10.631-25.376,18.828-54.71,33.844-77.808c0.421-0.647,1.363-0.059,1.281,0.59c-3.612,28.469-18.439,57.541-29.377,83.92
		c-11.299,27.246-23.225,54.224-35.718,80.943c-23.36,49.962-48.837,98.899-76.305,146.719
		c21.893-18.47,44.351-36.225,67.168-53.515c30.907-65.368,55.467-134.409,76.05-202.384
		c12.827-42.361,22.045-87.359,14.674-129.533c-2.938-16.806-9.236-31.264-27.118-29.914c-18.615,1.405-34.137,20.617-46.528,35.157
		c-36.75,43.126-66.075,94.126-97.051,141.968c-31.314,48.363-62.256,97.049-89.944,147.798c-5.154,9.446-10.207,19.112-15.2,28.871
		c-1.606,26.588-4.284,53.026-8.368,79.165c-0.332,2.126-0.765,4.228-1.12,6.349c8.928-20.181,18.069-40.267,27.623-60.158
		c26.78-55.755,55.913-110.346,86.946-163.846c29.12-50.203,58.378-101.475,94.434-147.012c0.319-0.403,1.004,0.029,0.765,0.486
		C1377.27,387.948,1343.466,438.405,1313.788,491.033z"/>
	<path style="fill:#FFF26B;" d="M847.824,1645.875c25.25-53.643,48.84-108.095,70.196-163.407
		c13.738-35.583,26.435-71.566,38.183-107.856c7.617-44.914,19.339-89.073,33.088-132.578c3.28-10.38,6.744-20.7,10.192-31.026
		c-6.769,14.783-13.971,29.362-21.921,43.566c-3.771,6.738-7.739,13.359-11.85,19.891c-5.877,11.726-11.708,23.469-17.372,35.28
		c-26.607,55.481-52.204,111.445-76.872,167.815c-25.18,57.539-49.602,115.432-73.035,173.705
		c-23.416,58.23-43.825,117.927-69.779,175.046c-0.198,0.434-0.803,0.196-0.684-0.256c16.266-61.855,40.666-121.801,63.765-181.4
		c22.696-58.558,46.436-116.684,71.41-174.307c20.767-47.918,42.274-95.513,64.39-142.822c-18.577,23.03-38.707,44.918-59.33,66.069
		c-10.052,18.69-19.913,37.485-29.353,56.495c-26.782,53.933-51.26,109.058-72.975,165.227
		c-10.635,27.507-20.623,55.264-29.99,83.229c-8.738,26.088-14.758,55.945-28.037,80.083c-0.372,0.677-1.355,0.159-1.321-0.494
		c1.511-28.658,14.162-58.739,23.134-85.851c9.267-28.001,19.179-55.783,29.676-83.348c21.865-57.418,46.29-113.832,73.453-168.945
		c3.2-6.492,6.546-12.91,9.817-19.365c-5.489,5.641-10.986,11.263-16.514,16.73c-17.355,17.164-35.187,33.809-53.333,50.107
		c-31.782,75.687-54.45,156.373-72.136,235.272c-9.681,43.189-15.569,88.742-5.12,130.261c4.164,16.545,11.508,30.501,29.243,27.842
		c18.461-2.768,32.531-23.068,43.82-38.479c33.483-45.708,58.983-98.724,86.361-148.712
		c27.677-50.533,54.959-101.359,78.846-154.005c4.301-9.481,8.497-19.158,12.628-28.922c-0.348-26.609,0.381-53.145,2.532-79.487
		c0.172-2.107,0.445-4.198,0.639-6.301c-7.294,20.384-14.794,40.694-22.709,60.845c-22.613,57.571-47.657,114.154-74.676,169.789
		c-25.355,52.206-50.767,105.489-83.381,153.551c-0.289,0.425-1.004,0.044-0.798-0.428
		C792.086,1753.343,822.093,1700.54,847.824,1645.875z"/>
	<path style="fill:#FFF26B;" d="M1820.054,1394.701c-43.126-36.751-94.126-66.075-141.968-97.051
		c-48.363-31.314-97.048-62.255-147.798-89.945c-8.287-4.521-16.729-8.977-25.26-13.377c-27.399-1.396-54.635-4.001-81.584-7.982
		c17.636,7.888,35.203,15.931,52.617,24.295c55.755,26.78,110.345,55.913,163.846,86.946
		c50.203,29.12,101.475,58.378,147.012,94.434c0.403,0.319-0.029,1.004-0.486,0.764c-53.426-28.076-103.883-61.881-156.51-91.558
		c-51.643-29.122-104.216-56.648-157.81-82.008c-30.343-14.359-61.055-27.932-92.058-40.806
		c-37.782-8.205-74.764-19.558-111.116-32.792c18.551,12.721,36.13,26.821,52.926,41.9c46.919,26.63,94.233,52.563,141.934,77.764
		c55.534,29.337,111.477,57.946,167.871,85.596c56.353,27.63,114.39,52.369,169.448,82.447l-0.306,0.664
		c-60.493-20.766-118.484-49.503-176.226-76.917c-56.732-26.935-112.958-54.88-168.591-84.019
		c-34.262-17.945-68.304-36.303-102.178-54.969c13.947,14.159,27.451,28.771,40.565,43.617c7.078,7.494,14.005,15.054,20.8,22.65
		c6.277,3.811,12.505,7.701,18.826,11.441c51.821,30.671,104.999,59.133,159.421,84.915c26.651,12.627,53.6,24.627,80.801,36.021
		c25.376,10.63,54.71,18.828,77.808,33.844c0.648,0.421,0.059,1.363-0.589,1.281c-28.47-3.612-57.541-18.438-83.92-29.377
		c-27.246-11.299-54.224-23.225-80.943-35.717c-51.32-23.995-101.57-50.205-150.625-78.537
		c18.781,22.121,36.791,44.853,54.337,67.945c66.276,31.597,136.424,56.599,205.467,77.505
		c42.361,12.828,87.359,22.046,129.533,14.673c16.806-2.937,31.264-9.235,29.914-27.118
		C1853.806,1422.613,1834.594,1407.091,1820.054,1394.701z"/>
	<path style="fill:#FFF26B;" d="M291.305,755.111c45.708,33.484,98.725,58.983,148.712,86.362
		c50.532,27.677,101.359,54.959,154.005,78.846c6.515,2.956,13.143,5.855,19.795,8.734c27.402-0.428,54.733,0.283,81.855,2.497
		c0.109,0.008,0.216,0.024,0.326,0.033c-16.104-5.882-32.154-11.907-48.111-18.174c-57.571-22.613-114.154-47.657-169.789-74.677
		c-52.206-25.354-105.488-50.767-153.55-83.381c-0.425-0.288-0.045-1.003,0.428-0.798c55.344,24.077,108.147,54.085,162.812,79.816
		c53.642,25.25,108.095,48.84,163.407,70.196c29.82,11.513,59.915,22.313,90.233,32.444c48.67,7.484,96.431,20.042,143.444,34.899
		c10.38,3.28,20.701,6.744,31.025,10.191c-14.784-6.768-29.362-13.97-43.565-21.921c-4.927-2.758-9.747-5.698-14.564-8.641
		c-11.25-5.633-22.519-11.219-33.85-16.653c-55.481-26.607-111.446-52.204-167.815-76.872
		c-57.539-25.18-115.432-49.602-173.704-73.035c-58.23-23.417-117.928-43.825-175.047-69.779c-0.434-0.197-0.195-0.803,0.256-0.685
		c61.855,16.267,121.801,40.666,181.4,63.765c58.558,22.696,116.684,46.436,174.308,71.41
		c46.456,20.135,92.612,40.956,138.497,62.361c-23.681-18.923-46.169-39.487-67.857-60.609
		c-16.682-8.896-33.448-17.636-50.382-26.045c-53.934-26.781-109.059-51.259-165.227-72.976
		c-27.507-10.635-55.264-20.624-83.228-29.99c-26.088-8.737-55.945-14.758-80.084-28.037c-0.676-0.372-0.159-1.355,0.494-1.321
		c28.659,1.511,58.74,14.162,85.851,23.135c28.002,9.267,55.784,19.179,83.348,29.676c57.418,21.865,113.832,46.29,168.945,73.453
		c4.577,2.256,9.095,4.63,13.654,6.921c-6.006-5.828-11.967-11.672-17.776-17.546c-16.573-16.758-32.652-33.971-48.413-51.471
		c-74.223-30.684-153.059-52.777-230.209-70.07c-43.188-9.681-88.742-15.569-130.261-5.12
		c-16.545,4.164-30.501,11.507-27.842,29.243C255.593,729.753,275.894,743.823,291.305,755.111z"/>
	<path style="fill:#FFF26B;" d="M1504.717,835.862c-10.866,3.195-21.826,6.643-32.81,10.21
		c-20.084,17.82-40.829,34.763-62.368,50.482c-1.591,1.16-3.231,2.238-4.831,3.382c21.132-8.19,42.356-16.146,63.741-23.654
		c58.361-20.488,117.562-38.489,177.336-54.376c56.09-14.907,113.033-30.474,170.728-37.178c0.51-0.059,0.69,0.731,0.198,0.885
		c-57.632,17.924-117.213,29.699-175.411,45.927c-57.109,15.924-113.748,33.636-169.577,53.601
		c-36.984,13.225-73.574,27.547-109.743,42.864c-28.014,16.945-57.121,32.012-86.853,45.821c25.74-4.554,51.87-6.859,78.118-7.666
		c48.586-13.511,96.986-27.694,145.173-42.567c60.014-18.524,119.801-37.851,179.229-58.177
		c59.385-20.31,117.916-43.857,178.117-61.52c0.458-0.134,0.672,0.481,0.254,0.686c-57.459,28.092-118.785,48.778-179,70.223
		c-59.162,21.07-118.68,41.067-178.623,59.802c-34.656,10.831-69.433,21.27-104.297,31.409c15.963,0.332,31.916,1.059,47.798,2.043
		c13.895,0.396,27.637,1.135,41.284,2.016c5.245-1.298,10.513-2.499,15.746-3.841c58.33-14.956,116.058-32.433,172.772-52.684
		c27.773-9.917,55.315-20.488,82.606-31.664c25.46-10.427,51.999-25.373,78.949-31.087c0.755-0.16,1.006,0.922,0.489,1.322
		c-22.685,17.577-53.725,27.65-80.113,38.568c-27.255,11.276-54.765,21.919-82.492,31.979
		c-51.769,18.783-104.309,35.348-157.465,49.726c28.354,2.521,56.609,5.883,84.787,9.831
		c68.186-24.382,134.479-55.881,197.194-89.443c39.024-20.884,77.36-46.184,101.969-81.217c9.806-13.961,15.576-28.638,1.977-40.328
		c-14.156-12.17-38.717-9.56-57.76-8.041c-56.481,4.509-113.279,19.835-169.011,31.761
		C1616.486,807.009,1560.182,819.555,1504.717,835.862z"/>
	<path style="fill:#FFF26B;" d="M635.633,1300.344c7.162-2.691,14.364-5.499,21.574-8.364c18.988-19.71,38.754-38.541,59.404-56.208
		c-15.845,7.376-31.755,14.612-47.776,21.597c-56.699,24.72-114.417,47.021-172.863,67.254
		c-54.843,18.987-110.49,38.694-167.536,49.617c-0.505,0.097-0.741-0.678-0.261-0.867c56.159-22.108,114.715-38.229,171.564-58.687
		c55.785-20.076,110.97-41.9,165.182-65.911c29.194-12.93,58.08-26.557,86.651-40.814c40.691-30.237,84.534-55.963,129.566-79.367
		c9.026-4.691,18.138-9.213,27.234-13.765c-2.523,0.832-5.045,1.669-7.57,2.498c-9.883,3.521-19.853,6.795-29.916,9.79
		c-20.87,6.818-41.715,13.691-62.391,20.964c-58.044,20.418-115.717,41.89-173.019,64.307
		c-58.491,22.882-116.697,46.549-174.471,71.184c-57.733,24.617-114.376,52.399-173.117,74.436l-0.303-0.666
		c55.241-32.236,114.881-57.371,173.358-83.18c57.455-25.358,115.343-49.673,173.749-72.76
		c50.066-19.791,100.446-38.781,151.068-57.103c-30.115,3.63-60.568,5.196-90.892,5.717c-21.107,6.314-42.145,12.859-63.029,19.884
		c-57.074,19.199-113.362,40.87-168.435,65.231c-26.97,11.93-53.66,24.495-80.057,37.646
		c-24.625,12.268-49.995,29.124-76.453,36.802c-0.742,0.215-1.071-0.846-0.585-1.283c21.333-19.196,51.549-31.521,77.064-44.347
		c26.353-13.248,53.007-25.884,79.92-37.953c56.061-25.14,113.224-47.76,171.401-67.523c7.468-2.536,14.991-4.911,22.49-7.359
		c-9.921,0.188-19.78,0.249-29.554,0.195c-22.735-0.126-45.441-0.889-68.128-2.044c-76.286,31.087-149.65,72.242-218.193,115.682
		c-37.385,23.693-73.759,51.741-95.728,88.488c-8.755,14.643-13.43,29.704,0.99,40.364c15.012,11.097,39.315,6.691,58.195,3.777
		c55.997-8.645,111.516-28.102,166.222-44.089C526.285,1337.329,581.515,1320.681,635.633,1300.344z"/>
	<path style="fill:#FFF26B;" d="M1329.734,1661.497c-12.056-56.34-24.602-112.645-40.909-168.109
		c-2.379-8.093-4.864-16.234-7.45-24.4c-18.097-19.89-35.231-40.519-51.292-61.854c6.295,16.594,12.444,33.241,18.322,49.986
		c20.488,58.361,38.489,117.562,54.376,177.336c14.907,56.09,30.474,113.033,37.178,170.729c0.059,0.51-0.73,0.689-0.884,0.197
		c-17.925-57.631-29.7-117.213-45.928-175.411c-15.924-57.109-33.635-113.748-53.6-169.577
		c-10.457-29.241-21.575-58.246-33.324-86.994c-22.235-33.687-41.33-69.259-58.479-105.804
		c8.208,30.366,13.131,61.568,16.014,93.053c11.933,42.296,24.376,84.448,37.337,126.439
		c18.524,60.014,37.852,119.801,58.177,179.229c20.31,59.385,43.856,117.916,61.519,178.116c0.134,0.458-0.481,0.673-0.685,0.253
		c-28.092-57.458-48.778-118.784-70.223-178.999c-21.07-59.162-41.067-118.68-59.801-178.623
		c-7.947-25.427-15.664-50.927-23.237-76.467c0.34,9.829,0.599,19.656,0.713,29.462c0.899,19.956,1.246,39.757,1.138,59.221
		c-0.046,8.372-0.179,16.74-0.38,25.105c12.651,45.819,26.842,91.224,42.823,135.983c9.917,27.773,20.487,55.315,31.664,82.606
		c10.427,25.459,25.373,51.999,31.087,78.949c0.16,0.755-0.922,1.006-1.323,0.489c-17.577-22.685-27.649-53.725-38.567-80.113
		c-11.276-27.255-21.92-54.765-31.98-82.492c-12.593-34.709-24.122-69.785-34.769-105.13c-1.21,27.721-3.092,55.409-5.333,83.072
		c20.746,50.398,44.793,99.492,69.989,146.574c20.884,39.024,46.184,77.361,81.218,101.969c13.961,9.807,28.638,15.575,40.328,1.977
		c12.17-14.156,9.56-38.717,8.041-57.76C1356.987,1774.027,1341.66,1717.23,1329.734,1661.497z"/>
	<path style="fill:#FFF26B;" d="M780.172,457.526c16.161,55.302,32.809,110.534,53.146,164.65
		c3.225,8.583,6.595,17.214,10.069,25.861c17.351,17.148,33.985,34.914,49.674,53.395c3.28,3.863,6.418,7.828,9.597,11.763
		c-9.044-19.155-17.9-38.4-26.365-57.816c-24.72-56.698-47.021-114.418-67.255-172.863c-18.987-54.843-38.694-110.49-49.617-167.536
		c-0.096-0.505,0.678-0.742,0.867-0.262c22.109,56.159,38.228,114.715,58.687,171.564c20.076,55.785,41.899,110.97,65.91,165.182
		c15.824,35.728,32.706,70.986,50.534,105.757c17.852,26.09,34.088,53.274,49.277,81.057c-3.676-21.431-5.829-43.126-6.856-64.931
		c-18.099-50.722-36.948-101.178-56.568-151.33c-22.882-58.491-46.549-116.697-71.184-174.472
		c-24.617-57.733-52.398-114.376-74.436-173.117l0.665-0.303c32.237,55.24,57.371,114.881,83.181,173.358
		c25.358,57.455,49.673,115.343,72.76,173.749c15.405,38.972,30.312,78.14,44.822,117.455c0.025-21.644,0.9-43.309,2.234-64.843
		c0.058-2.052,0.186-4.073,0.256-6.12c-5.071-16.51-10.302-32.972-15.81-49.344c-19.2-57.075-40.87-113.362-65.232-168.435
		c-11.931-26.97-24.495-53.66-37.646-80.057c-12.269-24.626-29.124-49.995-36.803-76.453c-0.215-0.742,0.846-1.071,1.283-0.585
		c19.196,21.332,31.521,51.549,44.347,77.064c13.248,26.353,25.883,53.007,37.953,79.92c25.14,56.061,47.759,113.223,67.523,171.401
		c1.975,5.814,3.808,11.676,5.729,17.509c0.478-8.057,0.984-16.099,1.613-24.045c1.547-19.531,3.584-39.005,5.909-58.445
		c-31.516-79.949-74.353-156.813-119.727-228.406c-23.693-37.384-51.741-73.759-88.488-95.728
		c-14.644-8.755-29.704-13.43-40.365,0.99c-11.097,15.012-6.691,39.315-3.776,58.194
		C744.728,347.301,764.185,402.82,780.172,457.526z"/>
	<path style="fill:#FFF26B;" d="M1035.747,868.336c4.999,16.836,9.64,33.945,16.615,49.655
		c-6.361-40.38-9.873-81.465-12.889-121.825c-4.503-60.262-6.008-120.729-5.02-181.146c1.012-61.845,4.647-123.615,10.465-185.189
		c5.46-57.78,10.596-116.589,24.307-173.03c0.122-0.499,0.925-0.393,0.898,0.121c-3.164,60.272-12.772,120.241-17.723,180.456
		c-4.858,59.089-7.878,118.354-8.504,177.643c-0.625,59.174,1.139,118.384,5.768,177.383c3.022,38.507,8.235,76.625,13.546,114.756
		c4.203-39.925,9.221-79.812,12.794-119.741c5.485-61.286,9.855-122.671,13.213-184.11c3.428-62.714,6.022-125.493,7.557-188.282
		c1.534-62.744-0.263-125.807,4.036-188.399c0.033-0.475,0.684-0.464,0.731,0c6.433,63.634,4.579,128.328,3.822,192.243
		c-0.744,62.797-2.618,125.557-5.823,188.278c-3.204,62.711-7.511,125.364-12.837,187.931c-3.255,38.245-6.08,76.843-10.425,115.174
		c2.271-8.53,4.557-17.031,6.59-25.488c6.899-28.678,13.473-57.408,19.236-86.339c11.911-59.805,21.017-120.157,27.286-180.814
		c6.191-59.898,9.807-120.104,10.471-180.322c0.325-29.489-0.043-58.986-1.067-88.46c-0.955-27.496-5.776-57.57-1.793-84.831
		c0.111-0.764,1.213-0.624,1.41,0c8.624,27.371,7.312,59.979,8.406,88.515c1.13,29.474,1.578,58.968,1.402,88.462
		c-0.365,61.439-3.48,122.836-9.615,183.971c-5.936,59.152-14.531,118.058-25.782,176.433c-5.58,28.951-11.644,57.856-18.69,86.489
		c-2.456,9.978-4.835,20.201-7.467,30.398c6.871-12.87,12.006-26.969,17.278-41.109c9.001-24.142,17.945-48.319,26.333-72.759
		c18.143-52.865,33.418-107.103,40.995-163.472c14.429-107.355,6.846-220.271-7.925-327.108
		c-6.062-43.843-16.505-88.573-40.836-123.8c-9.696-14.038-21.463-24.537-37.143-15.833c-16.322,9.06-22.388,33.003-27.563,51.392
		c-15.349,54.542-20.661,113.131-28.793,169.542c-8.221,57.027-15.969,114.189-19.9,171.867c-1.164,17.08-2.003,34.482-2.434,52.059
		c-2.79,52.347-3.003,105.582,6.01,156.845C1018.224,807.379,1026.739,837.997,1035.747,868.336z"/>
	<path style="fill:#FFF26B;" d="M1126.781,1340.736c-7.834-30.995-18.575-60.906-29.787-90.501
		c-5.504-14.528-10.734-29.298-17.473-43.009c-0.44,0.229-0.903,0.408-1.393,0.536c8.599,37.945,14.771,76.645,20.452,114.722
		c8.917,59.768,14.859,119.962,18.311,180.288c3.533,61.752,4.444,123.622,3.165,185.458c-1.2,58.025-2.004,117.052-11.533,174.348
		c-0.084,0.507-0.893,0.461-0.904-0.055c-1.271-60.341,3.906-120.854,4.421-181.27c0.506-59.286-0.836-118.614-4.566-177.789
		c-3.723-59.059-9.83-117.979-18.781-176.479c-5.842-38.182-13.841-75.814-21.938-113.452c-1.259,40.126-3.334,80.274-3.965,120.357
		c-0.969,61.523-0.818,123.063,0.346,184.583c1.188,62.796,3.211,125.597,6.293,188.329c3.079,62.686,9.503,125.448,9.813,188.186
		c0.002,0.477-0.649,0.513-0.729,0.054c-11.089-62.99-13.993-127.645-17.932-191.443c-3.87-62.682-6.612-125.41-8.022-188.197
		c-1.409-62.777-1.717-125.577-1-188.367c0.438-38.381,0.419-77.081,1.937-115.628c-1.638,8.673-3.293,17.319-4.701,25.903
		c-4.773,29.107-9.22,58.242-12.842,87.518c-7.486,60.519-12.135,121.378-13.932,182.33c-1.775,60.191-0.959,120.501,2.802,180.604
		c1.842,29.433,4.375,58.824,7.561,88.143c2.972,27.351,9.989,56.99,8.019,84.47c-0.055,0.77-1.164,0.71-1.406,0.103
		c-10.611-26.664-11.698-59.28-14.885-87.659c-3.292-29.311-5.904-58.692-7.896-88.12c-4.149-61.3-5.551-122.759-3.923-184.18
		c1.576-59.429,5.82-118.807,12.754-177.85c3.438-29.283,7.363-58.556,12.287-87.628c1.716-10.132,3.338-20.502,5.214-30.865
		c-5.907,13.34-9.993,27.778-14.212,42.268c-7.203,24.738-14.347,49.506-20.917,74.497
		c-14.211,54.055-25.462,109.268-28.878,166.041c-6.505,108.124,9.35,220.179,31.928,325.642
		c9.266,43.279,22.966,87.122,49.819,120.466c10.701,13.287,23.207,22.894,38.205,13.063c15.613-10.234,19.904-34.558,23.714-53.278
		c11.302-55.522,12.296-114.343,16.263-171.198c4.01-57.476,7.54-115.054,7.223-172.865c-0.094-17.118-0.535-34.536-1.396-52.096
		C1143.232,1444.304,1139.535,1391.197,1126.781,1340.736z"/>
	<path style="fill:#FFF26B;" d="M1941.547,1074.109c-9.06-16.322-33.002-22.388-51.391-27.563
		c-54.542-15.35-113.131-20.661-169.542-28.793c-57.026-8.221-114.189-15.97-171.867-19.9c-17.08-1.164-34.483-2.003-52.059-2.434
		c-52.347-2.79-105.582-3.003-156.844,6.01c-31.487,5.536-62.106,14.052-92.444,23.06c-15.007,4.455-30.24,8.61-44.503,14.393
		c0.155,0.443,0.282,0.898,0.416,1.351c38.584-5.82,77.753-9.141,116.257-12.019c60.261-4.503,120.729-6.008,181.145-5.02
		c61.845,1.011,123.615,4.647,185.19,10.465c57.78,5.46,116.588,10.596,173.03,24.307c0.499,0.122,0.393,0.925-0.121,0.897
		c-60.271-3.163-120.241-12.771-180.456-17.723c-59.089-4.859-118.354-7.878-177.643-8.504
		c-59.173-0.625-118.383,1.138-177.383,5.768c-38.507,3.022-76.625,8.235-114.757,13.546c39.925,4.202,79.813,9.221,119.741,12.794
		c61.286,5.485,122.671,9.855,184.11,13.213c62.713,3.427,125.493,6.022,188.282,7.557c62.744,1.533,125.807-0.264,188.399,4.036
		c0.475,0.033,0.464,0.684,0,0.731c-63.634,6.433-128.328,4.579-192.243,3.822c-62.797-0.744-125.557-2.618-188.277-5.823
		c-62.711-3.205-125.365-7.511-187.931-12.837c-38.245-3.256-76.843-6.08-115.174-10.425c8.53,2.271,17.031,4.556,25.488,6.59
		c28.678,6.898,57.408,13.473,86.339,19.236c59.805,11.911,120.158,21.017,180.814,27.286
		c59.898,6.191,120.105,9.807,180.322,10.471c29.49,0.324,58.987-0.043,88.46-1.067c27.496-0.955,57.57-5.775,84.831-1.793
		c0.764,0.112,0.624,1.214,0,1.41c-27.371,8.624-59.979,7.312-88.515,8.406c-29.474,1.13-58.967,1.577-88.463,1.403
		c-61.439-0.365-122.835-3.48-183.97-9.615c-59.152-5.936-118.058-14.53-176.434-25.782c-28.951-5.58-57.856-11.644-86.489-18.69
		c-7.724-1.901-15.598-3.764-23.49-5.724c1.015,0.81,1.831,1.736,2.296,2.796c10.258,4.723,21.065,8.698,31.905,12.74
		c24.142,9.001,48.318,17.946,72.759,26.333c52.865,18.143,107.103,33.419,163.471,40.995
		c107.355,14.429,220.272,6.846,327.108-7.925c43.843-6.062,88.573-16.505,123.8-40.836
		C1939.752,1101.556,1950.251,1089.788,1941.547,1074.109z"/>
	<path style="fill:#FFF26B;" d="M578.093,1128.307c17.119-0.094,34.537-0.535,52.097-1.396c52.41-1.063,105.517-4.76,155.979-17.515
		c30.995-7.834,60.906-18.576,90.5-29.787c11.488-4.352,23.124-8.537,34.277-13.418c0.232-1.334,0.587-2.62,1.023-3.88
		c-35.644,7.777-71.866,13.561-107.549,18.885c-59.768,8.916-119.962,14.858-180.287,18.31
		c-61.752,3.534-123.623,4.445-185.459,3.165c-58.024-1.2-117.052-2.004-174.348-11.532c-0.507-0.084-0.46-0.893,0.055-0.904
		c60.341-1.272,120.854,3.906,181.27,4.421c59.286,0.506,118.613-0.836,177.788-4.566c59.06-3.723,117.98-9.831,176.48-18.782
		c36.524-5.589,72.544-13.159,108.55-20.892c0.034-0.051,0.044-0.124,0.081-0.172c0.264-0.354,0.537-0.672,0.805-1.015
		c-38.789-1.267-77.595-3.213-116.341-3.824c-61.523-0.969-123.063-0.818-184.583,0.346c-62.796,1.188-125.597,3.212-188.329,6.293
		c-62.686,3.079-125.448,9.504-188.186,9.813c-0.477,0.002-0.513-0.649-0.054-0.729c62.989-11.089,127.645-13.992,191.443-17.932
		c62.683-3.87,125.41-6.611,188.197-8.021c62.777-1.411,125.578-1.717,188.367-1.001c38.381,0.438,77.081,0.419,115.628,1.937
		c-8.673-1.639-17.319-3.293-25.903-4.701c-29.107-4.774-58.242-9.22-87.518-12.841c-60.518-7.487-121.377-12.135-182.33-13.932
		c-60.191-1.775-120.501-0.959-180.603,2.802c-29.434,1.842-58.825,4.376-88.143,7.561c-27.351,2.972-56.99,9.989-84.47,8.02
		c-0.77-0.056-0.711-1.164-0.104-1.406c26.664-10.612,59.28-11.698,87.659-14.885c29.311-3.292,58.692-5.904,88.12-7.897
		c61.3-4.148,122.759-5.551,184.18-3.923c59.429,1.576,118.807,5.821,177.85,12.754c29.283,3.438,58.556,7.364,87.629,12.287
		c10.131,1.716,20.501,3.338,30.864,5.214c-13.34-5.907-27.778-9.993-42.267-14.212c-24.738-7.203-49.506-14.347-74.496-20.917
		c-54.055-14.211-109.269-25.463-166.041-28.879c-108.125-6.505-220.179,9.351-325.642,31.929
		c-43.28,9.266-87.121,22.966-120.466,49.819c-13.288,10.701-22.895,23.208-13.063,38.206
		c10.234,15.613,34.557,19.904,53.277,23.714c55.522,11.302,114.344,12.295,171.199,16.262
		C462.705,1125.094,520.282,1128.624,578.093,1128.307z"/>
	<path style="fill:#FFF26B;" d="M1331.496,705.862c-38.987,35.042-76.781,72.534-106.655,115.156
		c-18.35,26.179-33.98,53.851-49.062,81.673c-8.37,15.44-17.186,30.82-23.363,46.859c24.056-33.051,50.623-64.586,77.029-95.256
		c39.427-45.795,81.12-89.617,124.54-131.638c44.446-43.016,90.696-84.123,138.349-123.549
		c44.717-36.996,89.933-74.948,139.539-105.163l0.549,0.721c-44.856,40.381-94.054,75.992-140.134,115.069
		c-45.218,38.347-89.26,78.119-131.626,119.599c-42.283,41.4-82.905,84.515-121.35,129.508
		c-25.092,29.366-48.359,60.006-71.567,90.724c31.203-25.259,62.957-49.916,93.717-75.622
		c47.214-39.457,93.71-79.774,139.528-120.843c46.769-41.921,92.995-84.479,138.479-127.792
		c45.45-43.282,88.773-89.146,136.072-130.364l0.516,0.517c-40.447,49.545-87.503,93.979-133.233,138.639
		c-44.931,43.878-90.633,86.931-137.25,129.015c-46.61,42.077-93.957,83.335-141.964,123.81
		c-29.346,24.741-58.635,50.037-88.812,74.069c7.638-4.426,15.264-8.821,22.683-13.362c25.156-15.401,50.12-31.067,74.652-47.45
		c50.712-33.865,99.826-70.103,147.149-108.56c46.732-37.977,91.862-77.992,134.91-120.103
		c21.082-20.623,41.679-41.741,61.797-63.305c18.767-20.118,36.625-44.792,58.716-61.253c0.619-0.461,1.299,0.417,0.997,0.997
		c-13.256,25.453-37.241,47.582-56.646,68.533c-20.042,21.641-40.581,42.812-61.561,63.544
		c-43.702,43.186-89.318,84.396-136.886,123.288c-46.024,37.63-93.754,73.206-142.988,106.527
		c-24.417,16.526-49.145,32.677-74.374,47.942c-8.791,5.319-17.702,10.865-26.773,16.214c13.959-4.243,27.559-10.58,41.285-16.85
		c23.436-10.706,46.855-21.478,70.068-32.829c50.21-24.552,99.364-52.102,144.58-86.604
		c86.114-65.708,160.597-150.914,225.697-236.903c26.715-35.288,50.96-74.301,58.664-116.416c3.07-16.783,2.174-32.527-15.068-37.46
		c-17.948-5.135-39.167,7.505-55.829,16.849c-49.421,27.714-94.605,65.387-140.245,99.525
		c-46.137,34.51-92.036,69.452-135.599,107.457C1357.128,682.026,1344.229,693.738,1331.496,705.862z"/>
	<path style="fill:#FFF26B;" d="M810.654,1418.287c36.308-37.811,71.246-77.978,97.909-122.678
		c16.377-27.456,29.932-56.202,42.931-85.057c5.049-11.207,10.322-22.402,14.758-33.748c-0.781-1.09-1.5-2.189-2.123-3.3
		c-19.68,30.651-41.168,60.307-62.602,89.257c-35.957,48.567-74.319,95.332-114.534,140.43
		c-41.167,46.163-84.272,90.557-128.901,133.377c-41.879,40.18-84.185,81.351-131.438,115.128l-0.6-0.678
		c41.769-43.567,88.219-82.695,131.303-125.051c42.279-41.564,83.281-84.463,122.486-128.944
		c39.128-44.394,76.473-90.375,111.51-138.071c20.76-28.26,39.931-57.467,58.92-86.806c-0.569,0.133-1.071,0.344-1.655,0.458
		c-0.876,0.171-1.75,0.122-2.596-0.03c-26.03,24.257-52.359,48.227-77.868,72.945c-44.188,42.818-87.598,86.44-130.276,130.764
		c-43.563,45.244-86.54,91.082-128.719,137.619c-42.149,46.503-81.985,95.425-126.129,140.006l-0.553-0.478
		c36.699-52.382,80.364-100.153,122.691-148.05c41.587-47.06,84.004-93.353,127.403-138.747
		c43.393-45.387,87.583-90.011,132.488-133.903c25.964-25.378,51.868-51.215,78.569-76.099c0.203-0.547,0.442-1.073,0.65-1.617
		c-5.976,4.077-11.93,8.153-17.728,12.317c-23.957,17.207-47.704,34.664-70.966,52.804
		c-48.087,37.499-94.407,77.246-138.778,119.075c-43.816,41.306-85.885,84.529-125.725,129.688
		c-19.51,22.115-38.501,44.689-56.98,67.673c-17.239,21.442-33.235,47.361-54.059,65.4c-0.583,0.505-1.326-0.32-1.068-0.922
		c11.351-26.358,33.646-50.189,51.459-72.508c18.399-23.054,37.326-45.678,56.727-67.895
		c40.411-46.279,82.878-90.729,127.46-133.009c43.136-40.909,88.124-79.894,134.778-116.741
		c23.137-18.275,46.611-36.198,70.651-53.275c6.936-4.927,13.951-10.012,21.067-15.024c-0.118-0.378-0.232-0.755-0.305-1.139
		c-11.918,5.042-23.507,11.452-35.187,17.864c-22.586,12.399-45.151,24.86-67.468,37.886c-48.272,28.174-95.269,59.26-137.829,96.99
		c-81.055,71.855-149.079,162.301-207.686,252.84c-24.052,37.155-45.365,77.843-49.955,120.41
		c-1.829,16.962,0.221,32.598,17.778,36.251c18.276,3.803,38.51-10.362,54.441-20.904c47.252-31.268,89.548-72.158,132.556-109.557
		c43.478-37.806,86.686-76.024,127.341-117.126C786.841,1443.941,798.846,1431.313,810.654,1418.287z"/>
	<path style="fill:#FFF26B;" d="M1556.326,1493.928c-34.511-46.136-69.451-92.036-107.457-135.599
		c-11.254-12.9-22.967-25.799-35.09-38.532c-35.042-38.987-72.535-76.781-115.156-106.655c-26.179-18.35-53.851-33.98-81.673-49.062
		c-10.192-5.525-20.36-11.233-30.701-16.28c-1.184,0.761-2.369,1.522-3.553,2.282c28.49,21.506,55.906,44.636,82.652,67.663
		c45.795,39.427,89.616,81.121,131.639,124.54c43.015,44.446,84.123,90.695,123.548,138.349
		c36.997,44.717,74.948,89.933,105.164,139.538l-0.721,0.549c-40.381-44.856-75.992-94.054-115.069-140.134
		c-38.346-45.218-78.118-89.261-119.599-131.626c-41.4-42.284-84.515-82.905-129.508-121.35
		c-28.451-24.311-58.102-46.903-87.857-69.393c-0.208,0.207-0.417,0.409-0.648,0.588c24.484,30.315,48.454,61.099,73.405,90.955
		c39.457,47.214,79.773,93.71,120.843,139.528c41.922,46.769,84.479,92.996,127.792,138.479
		c43.282,45.451,89.146,88.773,130.364,136.072l-0.517,0.517c-49.545-40.448-93.979-87.503-138.639-133.234
		c-43.878-44.931-86.931-90.633-129.015-137.25c-42.077-46.61-83.335-93.957-123.81-141.965
		c-23.337-27.68-47.131-55.335-69.929-83.707c-0.139,0.395-0.307,0.771-0.514,1.135c3.214,5.537,6.436,11.051,9.738,16.443
		c15.4,25.157,31.066,50.121,47.449,74.652c33.866,50.711,70.103,99.825,108.561,147.149
		c37.977,46.732,77.992,91.861,120.102,134.911c20.623,21.082,41.741,41.679,63.305,61.797
		c20.118,18.767,44.792,36.624,61.253,58.716c0.461,0.619-0.417,1.299-0.997,0.997c-25.453-13.256-47.582-37.24-68.533-56.646
		c-21.64-20.042-42.812-40.581-63.544-61.561c-43.185-43.701-84.396-89.319-123.288-136.886
		c-37.63-46.024-73.205-93.754-106.527-142.988c-16.526-24.417-32.677-49.145-47.941-74.373
		c-3.742-6.185-7.595-12.433-11.416-18.748c-0.713-0.012-1.425-0.025-2.138-0.037c4.016,11.187,9.121,22.202,14.19,33.297
		c10.706,23.435,21.477,46.855,32.828,70.068c24.552,50.21,52.103,99.364,86.604,144.58
		c65.708,86.114,150.914,160.597,236.903,225.697c35.288,26.715,74.301,50.959,116.416,58.663
		c16.783,3.07,32.527,2.174,37.46-15.067c5.135-17.948-7.506-39.167-16.849-55.83
		C1628.137,1584.752,1590.464,1539.568,1556.326,1493.928z"/>
	<path style="fill:#FFF26B;" d="M553.666,630.078c37.806,43.477,76.024,86.686,117.126,127.341
		c12.171,12.039,24.799,24.042,37.825,35.851c37.811,36.308,77.978,71.246,122.678,97.909
		c27.456,16.378,56.202,29.933,85.057,42.932c13.133,5.916,26.25,12.125,39.614,16.935c0.383-0.645,0.794-1.263,1.204-1.881
		c-31.996-20.324-62.891-42.708-93.027-65.021c-48.568-35.957-95.332-74.319-140.43-114.535
		c-46.164-41.167-90.557-84.272-133.377-128.901c-40.181-41.879-81.351-84.185-115.128-131.438l0.678-0.601
		c43.567,41.769,82.695,88.218,125.051,131.304c41.564,42.279,84.464,83.281,128.944,122.486
		c44.394,39.128,90.376,76.474,138.071,111.51c30.435,22.357,61.959,42.881,93.574,63.309c0.182-0.113,0.353-0.239,0.544-0.334
		c-26.921-28.71-53.337-57.952-80.685-86.174c-42.818-44.189-86.44-87.598-130.764-130.276
		c-45.244-43.563-91.081-86.539-137.618-128.719c-46.503-42.149-95.425-81.985-140.006-126.129l0.478-0.554
		c52.381,36.699,100.153,80.365,148.05,122.691c47.06,41.586,93.354,84.003,138.747,127.403
		c45.387,43.393,90.011,87.583,133.903,132.488c26.83,27.449,54.209,54.801,80.392,83.131c-4.974-7.292-9.918-14.574-14.992-21.64
		c-17.207-23.957-34.664-47.703-52.804-70.965c-37.499-48.087-77.246-94.407-119.075-138.778
		c-41.307-43.816-84.529-85.885-129.688-125.725c-22.115-19.51-44.689-38.501-67.673-56.98
		c-21.442-17.239-47.361-33.236-65.4-54.059c-0.506-0.584,0.32-1.326,0.921-1.068c26.357,11.351,50.188,33.646,72.509,51.459
		c23.054,18.398,45.677,37.327,67.894,56.727c46.279,40.412,90.729,82.879,133.009,127.461
		c40.909,43.136,79.894,88.124,116.741,134.777c18.274,23.137,36.198,46.612,53.274,70.651c5.951,8.377,12.137,16.857,18.138,25.511
		c-5.256-13.61-12.576-26.709-19.838-39.937c-12.399-22.586-24.861-45.151-37.886-67.468
		c-28.174-48.271-59.26-95.269-96.989-137.828c-71.856-81.055-162.302-149.079-252.841-207.687
		c-37.155-24.052-77.843-45.365-120.41-49.956c-16.963-1.829-32.599,0.221-36.252,17.779c-3.803,18.277,10.362,38.51,20.904,54.441
		C475.377,544.774,516.267,587.069,553.666,630.078z"/>
	<path style="fill:#300400;" d="M1206.67,1079.944c-0.465-1.06-1.281-1.986-2.296-2.796c-0.301-0.24-0.538-0.516-0.891-0.725
		c-3.305-1.958-6.546-3.564-9.865-4.939c1.707-2.035,3.321-4.06,4.762-6.127c0.728-0.571,1.423-1.174,2.187-1.712
		c2.933-2.242,4.704-6.807,3.359-10.255c0.723-3.404,0.79-7.088-0.086-11.227c-0.14-0.658-0.339-1.293-0.527-1.932
		c-0.133-0.453-0.26-0.907-0.416-1.351c-0.932-2.664-2.225-5.18-3.69-7.612c0.444-2.285,0.845-4.59,1.171-6.949
		c0.704-5.087-3.116-10.469-8.032-10.177c0.381-2.205,0.761-4.41,1.142-6.614c0.771-4.464-2.042-10.668-7.628-10.013l-0.226,0.028
		c-0.011-1.061-0.021-2.121-0.032-3.182c-0.038-3.783-3.056-7.25-6.717-7.853c-1.716-2.256-3.643-3.793-5.731-4.9l-0.01-0.223
		c1.21-6.872-5.159-12.123-11.592-8.911c-0.686,0.343-1.324,0.693-1.952,1.047c-0.524-3.585-1.049-7.169-1.574-10.754
		c-0.955-6.525-9.883-7.119-13.618-2.804c-0.736-4.106-1.472-8.214-2.208-12.32c-1.026-5.731-9.426-7.695-13.156-3.474
		c-2.167,2.454-3.952,4.79-5.483,7.203c-0.736-1.73-1.333-3.571-1.625-5.648c-1.358-5.93-9.059-7.422-13.159-3.474
		c-1.514,1.457-3.028,2.915-4.541,4.373c-4.114-2.204-8.103-4.629-13.07-6.168c-0.983-0.304-1.991-0.538-2.998-0.774
		c-1.835-2.604-3.67-5.209-5.505-7.813c-2.27-3.222-5.651-4.179-8.591-3.481l-0.184-0.357c-3.338-6.462-12.942-4.151-14.523,2.117
		l-12.806-10.667c-4.632-3.859-14.411-1.923-13.57,5.621c-5.461,0.576-10.922,1.153-16.383,1.729
		c-0.083-6.22-6.648-9.672-11.979-6.874c-7.012,3.679-11.977,8.963-14.753,15.219c-4.843-0.068-9.632,0.163-14.191,1.084
		c-1.176,0.237-2.28,0.548-3.35,0.894c-2.246-0.369-4.528-0.681-6.888-0.884c-1.222-0.105-2.361,0.165-3.379,0.674
		c-0.191,0.095-0.362,0.221-0.544,0.334c-2.882,1.79-4.56,5.637-3.619,8.892l0.37,1.264c-0.405,0.542-0.729,1.161-1.106,1.729
		c-0.411,0.618-0.822,1.237-1.204,1.881c-0.243,0.41-0.531,0.777-0.764,1.195c-2.448-0.396-4.868-0.976-7.236-1.929
		c-5.047-1.528-9.391,2.589-9.711,7.397c-0.568,8.542-1.136,17.084-1.704,25.626c-0.041,0.624-0.012,1.203,0.068,1.744
		c-3.108-0.146-6.048,0.978-8.32,4.328c-0.803,1.184-1.23,2.412-1.453,3.64c-5.07,2.985-6.742,10.21-4.822,15.847
		c-0.173,5.806,1.85,10.486,5.269,13.74c-0.204,0.582-0.405,1.165-0.604,1.749c-2.493,1.525-4.986,3.05-7.479,4.575
		c-4.065,2.487-3.95,7.851-0.437,10.627c-3.408,2.689-6.483,5.867-9.419,9.644c-0.267,0.343-0.54,0.661-0.805,1.015
		c-0.036,0.048-0.047,0.121-0.081,0.172c-1.109,1.663-1.038,4.556,0.081,6.148c1.138,1.619,2.483,2.972,3.939,4.111
		c-0.223,0.524-0.334,1.095-0.521,1.636c-0.436,1.261-0.791,2.547-1.023,3.88c-0.748,4.304-0.478,8.92,1.155,13.572
		c0.309,0.88,0.779,1.65,1.345,2.309c-0.378,0.947-0.777,1.866-1.133,2.844c-2.087,5.728,4.665,8.926,9.117,7.093l-4.178,9.877
		c-2.628,6.212,4.297,12.851,9.834,7.587c0.594-0.564,1.187-1.128,1.781-1.693c-0.09,0.771-0.181,1.542-0.271,2.313
		c-2.213,4.049,0.374,7.836,3.721,9.02c-0.278,0.558-0.573,1.086-0.831,1.678c-3.174,7.289,6.212,13.146,10.818,6.323
		c1.091-1.616,2.054-3.242,3.031-4.868l0.271,1.27c-2.295,6.128-5.843,12.384-4.792,17.943c0.073,0.384,0.187,0.761,0.305,1.139
		c0.677,2.151,2.105,4.19,4.699,6.056l0.82,0.499c-0.839,1.922-1.599,3.89-2.358,5.861c-0.208,0.543-0.447,1.07-0.65,1.617
		c-0.996,2.685-1.924,5.415-2.777,8.208c-1.206,3.953,1.658,7.103,5.17,7.736c0.847,0.152,1.721,0.201,2.596,0.03
		c0.585-0.114,1.087-0.325,1.655-0.458c4.174-0.973,7.995-2.354,11.332-4.33c0.627,1.918,1.474,3.815,2.524,5.688
		c0.623,1.111,1.341,2.21,2.123,3.3c0.357,0.497,0.694,0.998,1.084,1.49c1.686,2.126,5.492,2.339,7.68,0.991
		c0.855-0.526,1.643-1.077,2.425-1.631c1.73,1.227,3.504,2.389,5.321,3.477c1.296,2.645,2.854,5.246,4.683,7.832
		c2.587,3.656,8.576,4.544,10.967,0l0.337-0.64c3.693,1.047,7.362,1.628,11.018,1.924c0.177,0.568,0.353,1.137,0.529,1.705
		c1.443,4.647,7.064,6.107,10.615,2.802c1.265-1.178,2.393-2.376,3.426-3.602c0.412,2.226,0.722,4.478,0.813,6.788
		c0.455,5.151,6.813,8.832,10.866,4.501c2.537-2.711,4.596-5.347,6.304-8.119l5.523,10.961c2.114,4.196,8.941,4.163,11.065,0
		c1.123-2.201,2.054-4.361,2.866-6.518c1.517,0.487,3.091,0.863,4.738,1.103c1.749,2.098,3.497,4.197,5.246,6.296
		c1.443,1.732,4.086,2.197,6.369,1.597c0.49-0.129,0.953-0.307,1.393-0.536c1.029-0.535,1.899-1.307,2.369-2.366
		c1.055-2.375,2.109-4.75,3.164-7.125c1.489-0.442,2.964-0.922,4.427-1.427c2.592,1.216,5.252,1.518,7.634,0.482
		c4.598,4.536,9.591,7.706,16.462,10.601c4.398,1.853,9.731-3.666,8.003-8.004l-2.297-5.77c3.917-1.588,7.211-3.932,9.04-7.161
		c1.436,0.417,2.871,0.834,4.307,1.251c4.26,1.238,8.258-2.166,8.396-6.396c0.1-3.054-0.004-5.881-0.313-8.678
		c2.529,0.044,5.058,0.088,7.587,0.132c0.713,0.012,1.425,0.025,2.138,0.037c1.968,0.034,3.935,0.068,5.903,0.102
		c2.546,0.044,4.748-1.475,5.936-3.567c0.207-0.364,0.375-0.739,0.514-1.135c0.444-1.256,0.568-2.628,0.166-3.984
		c-0.68-1.72-1.137-3.462-1.486-5.216c1.522,0.379,3.044,0.758,4.565,1.137c2.184,0.543,4.528,0,6.261-1.333
		c0.232-0.179,0.44-0.381,0.648-0.588c0.814-0.809,1.45-1.803,1.748-2.995c2.667-1.714,5.336-3.428,8.004-5.142
		c1.184-0.761,2.369-1.521,3.553-2.282c0.074-0.048,0.149-0.096,0.224-0.144c6.6,1.558,12.84-7.123,7.06-12.128
		c-2.24-1.941-4.48-3.881-6.721-5.821l0.188-0.319c3.572-0.867,7.23-1.387,10.981-1.531c6.438-0.546,10.329-8.065,5.417-13.079
		c-1.87-1.908-3.765-3.572-5.696-5.139c0.65-0.277,1.3-0.556,1.95-0.833c6.007-2.561,4.436-13.085-1.854-14.185
		c-1.477-0.258-2.832-0.615-4.195-0.968c2.659-0.898,5.323-1.784,7.98-2.687C1206.343,1089.349,1208.47,1084.035,1206.67,1079.944z"
		/>
</g>
</svg>
